<?xml version="1.0" encoding="UTF-8"?>
<svg id="Layer_2" data-name="Layer 2" xmlns="http://www.w3.org/2000/svg" viewBox="0 0 807.5 194.04" fill="#483C32" stroke="#483C32">
  <g id="Layer_4" data-name="Layer 4">
    <g>
      <circle cx="477.49" cy="9" r="9"/>
      <circle cx="477.49" cy="185.04" r="9"/>
      <circle cx="379.9" cy="97.02" r="9"/>
      <circle cx="650.32" cy="52.02" r="9"/>
      <circle cx="798.5" cy="97.02" r="9"/>
      <circle cx="9" cy="97.02" r="9"/>
      <path d="M117.02,96.32c2.23,2.42,5.04,3.88,7.18,6.82,4.05,5.56,4.52,13.25,2.76,19.75-.5,1.83-1.65,3.92-1.89,5.72-.18,1.31.11,2.57-.07,3.85-3.55-.13-6.15,2.09-9.17,3.49-9.77,4.51-20.43,4.47-31.02,4.82-3.86.13-7.78.39-11.67.22s-12.08-.48-10.74-6.28c.49-2.12,3.07-3.48,4.33-5.07,2.07-2.61,2.36-5.91,2.52-9.14.79-16.3-.43-33.4-.24-49.74-.75-5.95-2.7-5.35-5.71-9.07-3.22-3.99-.61-7.02,3.69-7.96,8.86-1.94,25-.41,34.14,1.05,10.65,1.69,21.61,7.5,22.33,19.56.45,7.52-2.59,10.45-6.33,16.09-1.53,2.31-2.2,3.62-.1,5.91ZM90.45,63.08c-1.62.18-3.48.66-4.39,2.1s-1.09,5.05-1.17,6.9c-.16,3.77-.34,11.48.52,14.96.69,2.78,2.79,3.52,5.43,3.75,6.86.61,12.89-2.51,14.83-9.36,2.96-10.43-4.27-19.59-15.22-18.36ZM107.45,105.22c-3.57-3.65-12.73-6.22-17.63-5.13-3.87.86-4.47,3.06-4.7,6.72-.32,5.09-.55,16.35,1.64,20.78,3.37,6.81,15.07,4.86,19.88.52,5.95-5.39,6.44-17.13.82-22.89Z"/>
      <path d="M170.81,100.31c-3.9,3.96-10.35,2.15-11.06-3.37-1.46-11.26,20.26-21.31,29.44-20.7,10.02.66,16.86,8.17,17.59,18.04.69,9.34-.33,18.9.22,28.24.23,3.97,1.19,8.12,6.21,5.74,4.37-2.07,1.67-7.42,1.03-10.97-3.62-20.34,7.24-35.98,27.22-40.08,9.44-1.94,24.03-.05,27.71,10.47,2.94,8.41-6.34,14.07-12.55,6.94-4.74-5.45-4.53-10.63-13.67-10.92-14.5-.45-14.27,22.53-11.59,32.15,3.33,11.97,13.73,18.44,25.75,13.31,3.64-1.55,7.93-5.84,11.93-3.05,1.57,1.09,3.74,5.08,5.8,1.97,1.28-1.93,1.3-6.52,1.38-8.91.3-9.18.26-18.64.24-27.8-.02-7.7.11-16.57-.46-24.2-.36-4.88-2.06-4.88-4.48-8.12-4.28-5.73,1.64-9.13,6.34-11.29,7.09-3.27,11.8-3.3,12.89,5.56,1.14,9.2.08,20.71.24,30.23.06,3.52-.17,11.03.79,13.99,1.55,4.79,7.24.32,9.63-1.57,1.92-1.52,4.98-4.38,4.83-7.05-.16-2.98-3.85-5.83-.47-9.2,2.94-2.93,13.12-2.36,17.12-1.87,6.67.83,10.63,4.06,3.8,9.12-5.01,3.71-18.4,11.22-20.17,17.02-.89,2.93,1.24,5.07,3.07,7.11,4.65,5.21,11.17,11.63,16.36,16.35,1.67,1.52,6.97,5.19,7.52,7.04,1.07,3.61-2.18,5.11-5.04,5.73-4.63,1.01-16.85,1.51-20.9-.85-.86-.5-2.78-2.17-2.85-3.2-.14-1.87,2.4-3.71,1.95-6.88-.41-2.89-7.35-9.69-9.95-11.1-6.68-3.63-5.88,8.03-3.53,11.37,1.99,2.83,9.55,6.25,3.17,9.69-4.41,2.38-20.39,2.27-25.2.69-2.53-.83-4.19-2.93-7.11-2.76-2.49.14-6.07,2.23-8.56,3.09-9.61,3.32-18.88,2.73-27.68-2.45-1.82-1.07-5.74-4.43-7.66-4.44-2.58-.02-4.28,2.87-5.94,4.37-5.5,4.99-11.05,5.73-17.63,2.16-1.42-.77-3.01-2.31-4.66-2.51-3.73-.46-6.57,1.94-9.82,3.19-4.67,1.8-9.5,2.41-14.41,1.33-3.35-.73-6.01-2.87-9.58-2.47-1.54.17-3.28.88-4.96,1.09-5.03.64-18.68,1.1-23.01-.96-1.95-.93-3.03-2.38-3.64-4.43-.97-3.24,1.01-2.23,3.31-3.39,4.02-2.02,3.79-4.97,4.19-8.81,1.5-14.45.54-32.17-.01-46.82-.14-3.69.56-9.96-1.15-13.18-1.61-3.04-5.21-4.32-4.64-8.54.5-3.68,8.31-7.14,11.51-8.2,8.92-2.96,9.5,5.24,9.76,11.76.82,20.72-.84,42.04-.02,62.76.08,2.02.28,5.89,1.09,7.64,1.22,2.66,4.67,3.01,6.06.16,1.67-3.42,1.81-5.92,4.62-9.05,5.09-5.66,11.19-5.82,17.77-8,2.5-.83,9.81-5.23,11.34-7.26,2.52-3.36,1.76-12.58-.99-15.77-3.43-3.97-12.41-5.19-14.67.56-1.56,3.98-.22,7.64-3.82,11.3ZM184.55,114.61c-7.58,1.04-14.94,13.31-6.28,16.47,7.34,2.68,14.73-6.62,12.96-13.41-.76-2.92-4.05-3.43-6.68-3.07Z"/>
      <path d="M668.56,73.58c3.4-2.86,9.45-9.75,13.67-4.16,2.11,2.8,1.29,5.89,5.35,7.23,4.15,1.38,9.42.69,11.87,5.21.99,1.84,1.3,2.63-.53,3.75-3.88,2.36-8.33,1.65-12.06,3.22-1.26.53-1.93,1.32-2.32,2.62s-.55,3.97-.61,5.45c-.35,7.8-.39,17.62,0,25.41.06,1.27.22,3.21.53,4.42.78,3.04,3.35,4.05,6.28,3.71,2.3-.27,8.36-3.35,10.27-4.79,2.63-1.99,4.44-6.9,8.63-4.32,3.66,2.25,4.84,8.34,9.83,11.29,11.06,6.52,21.6-4.23,10.3-12.77-8.42-6.35-19.79-7.31-24.51-18.41-2.14-5.03-1.13-7.23-1.3-12.19-.03-.92-.47-2.12-.28-2.96.21-.95,1.3-1.04,2.05-1.54,6.66-4.47,8.72-6.73,17.24-7.93,7.77-1.09,23.09-1.56,23.9,9.07.26,3.4-.87,11.65-6.15,8.39-1.99-1.23-4.08-5.99-6.43-7.94-6.98-5.8-19.79-.88-14.42,8.36,2.62,4.51,13.72,8.97,18.53,12.03,7.67,4.88,13.82,12.65,10.44,22.26-5.37,15.29-29.58,14.75-41.89,9.64-3.48-1.44-4.55-3.3-8.66-1.55-5.29,2.25-7.47,5.37-14.23,5.34-5.82-.03-7.63-2.66-12.15-4.47-3.36-1.35-4.42.43-7.12,1.58-4.69,2-18.13,2.02-23.08.75-2.08-.54-4.57-1.63-4.59-4.18-.03-3.54,4.18-5.01,5.28-8.39,1.62-4.96,1.12-19.48.89-25.2-.14-3.39-.35-7.95-3.38-10.08-2.15-1.51-5.07-1.39-5.17,1.79-.07,2.39,1.26,6.39,1.56,9.01,2.56,22.56-13.05,39.59-35.81,38.28-4.39-.25-11.26-2.37-15.22-1.5-2.69.59-4.65,1.96-7.52.65-3.31-1.51-3.73-6.39-3.9-9.58-.6-11.13.68-22.95-.22-33.94-.14-1.72-.62-4.41-2.63-4.78-1.96-.36-4.49.54-6.66.37-3.96-.32-7.33-3.32-11.27-2.89-4.54.5-6.16,6.9-6.41,10.67-.43,6.43-.37,15.8,0,22.27.08,1.46.31,3.62.9,4.94,1.48,3.33,6.96,4.33,7.76,7.52s-2.51,4.51-5.05,5.07c-4.67,1.03-18.59,1.42-22.76-.62-2.77-1.36-3.34-4.15-1.52-6.57,2.55-3.4,4.34-2.99,4.73-8.31.54-7.3.54-18.51-.01-25.85-.2-2.62-1.13-5.69-3.82-6.74-4.89-1.91-4.34,4.38-4.72,7.19-3.45,25.73-17.98,40.96-44.6,42.37-34.63,1.84-54.38-32.25-41.8-62.92,12.74-31.06,59.72-36.11,78.85-8.08,2.04,2.99,3.84,7.89,5.88,10.3,1.47,1.74,3.07,1.42,5.03.79,5.18-1.65,12.04-7.16,17.6-5,3.26,1.27,3.55,3.98,8.02,2.76,4.8-1.32,7.4-4.03,13.15-4.06,3.96-.02,8.14,2.56,9.08-2.93.39-2.28.33-6.33-.42-8.53-1.28-3.77-7.02-5.84-5.25-10.62,1.13-3.05,7.8-6.19,10.8-7.18,8.16-2.71,9.8,2.56,10.18,9.48.32,5.85-.2,12.14.22,17.98.12,1.67.56,5.05,2.46,5.63,2.81.87,7.58-1.65,10.4-2.44,8.02-2.26,15.21-.98,22.05,3.7,1.84,1.26,5.92,5.22,7.74,5.52,2.71.45,4.02-1.81,5.92-3.19,3.72-2.7,12.62-7.57,17.16-6.63,2.12.44,4.2,2.66,6.28,2.44,2.43-.26,5.83-3.69,7.68-5.25ZM493.51,68.36c-9.94-10.63-27.44-10.64-36.19,1.5-13.24,18.39-8.4,61.09,18.64,64.03,27.93,3.04,32.01-36.52,23.97-55.43-1.52-3.58-3.75-7.26-6.42-10.1ZM614.64,130.67c7.19-7.58,6.31-26.6,1.69-35.35-7.57-14.34-26.49-11.28-27.44,5.42-.33,5.75-.41,13.62-.02,19.35.86,12.63,16.88,19.96,25.77,10.59ZM661.64,87.43c-2.74.26-3.16,3.24-3.32,5.46-.55,7.49-.35,18.03,0,25.61.1,2.26.5,8.48,1.45,10.24,1.23,2.28,5.6,4.02,7.42,1.78,1.05-1.29,1.18-5.29,1.25-7.06.32-8.43.35-18.34,0-26.77-.07-1.61-.26-5.15-.96-6.45-.87-1.63-4.05-2.99-5.84-2.81Z"/>
    </g>
  </g>
</svg>